HIERARCHY
ROOT Hips
{
    OFFSET 0.000000 0.000000 0.000000
    CHANNELS 6 Xposition Yposition Zposition Zrotation Xrotation Yrotation
    JOINT Spine
    {
        OFFSET -0.000000 0.070167 0.000000
        CHANNELS 3 Zrotation Xrotation Yrotation
        JOINT Spine1
        {
            OFFSET -0.000000 0.166666 0.000000
            CHANNELS 3 Zrotation Xrotation Yrotation
            JOINT Neck
            {
                OFFSET -0.000000 0.183780 0.000000
                CHANNELS 3 Zrotation Xrotation Yrotation
                JOINT Head
                {
                    OFFSET -0.000000 0.132633 0.017114
                    CHANNELS 3 Zrotation Xrotation Yrotation
                    End Site
                    {
                        OFFSET -0.000000 0.171140 0.000000
                    }
                }
            }
            JOINT LeftShoulder
            {
                OFFSET 0.034466 0.144174 -0.004091
                CHANNELS 3 Zrotation Xrotation Yrotation
                JOINT LeftArm
                {
                    OFFSET 0.121044 0.000000 0.000000
                    CHANNELS 3 Zrotation Xrotation Yrotation
                    JOINT LeftForeArm
                    {
                        OFFSET 0.257070 0.000000 0.000000
                        CHANNELS 3 Zrotation Xrotation Yrotation
                        JOINT LeftHand
                        {
                            OFFSET 0.224060 0.000000 0.000000
                            CHANNELS 3 Zrotation Xrotation Yrotation
                            End Site
                            {
                                OFFSET 0.128355 0.000000 0.000000
                            }
                        }
                    }
                }
            }
            JOINT RightShoulder
            {
                OFFSET -0.033538 0.144174 -0.004091
                CHANNELS 3 Zrotation Xrotation Yrotation
                JOINT RightArm
                {
                    OFFSET -0.121044 0.000000 0.000000
                    CHANNELS 3 Zrotation Xrotation Yrotation
                    JOINT RightForeArm
                    {
                        OFFSET -0.257070 0.000000 0.000000
                        CHANNELS 3 Zrotation Xrotation Yrotation
                        JOINT RightHand
                        {
                            OFFSET -0.224060 0.000000 0.000000
                            CHANNELS 3 Zrotation Xrotation Yrotation
                            End Site
                            {
                                OFFSET -0.128355 0.000000 0.000000
                            }
                        }
                    }
                }
            }
        }
    }
    JOINT LeftUpLeg
    {
        OFFSET 0.085570 0.000000 0.000000
        CHANNELS 3 Zrotation Xrotation Yrotation
        JOINT LeftLeg
        {
            OFFSET -0.000000 -0.385526 0.000000
            CHANNELS 3 Zrotation Xrotation Yrotation
            JOINT LeftFoot
            {
                OFFSET -0.000000 -0.365921 0.000000
                CHANNELS 3 Zrotation Xrotation Yrotation
                JOINT LeftToeBase
                {
                    OFFSET -0.000000 -0.055620 0.128355
                    CHANNELS 3 Zrotation Xrotation Yrotation
                    End Site
                    {
                        OFFSET -0.000000 0.000000 0.034228
                    }
                }
            }
        }
    }
    JOINT RightUpLeg
    {
        OFFSET -0.085570 0.000000 0.000000
        CHANNELS 3 Zrotation Xrotation Yrotation
        JOINT RightLeg
        {
            OFFSET -0.000000 -0.385526 0.000000
            CHANNELS 3 Zrotation Xrotation Yrotation
            JOINT RightFoot
            {
                OFFSET -0.000000 -0.365921 0.000000
                CHANNELS 3 Zrotation Xrotation Yrotation
                JOINT RightToeBase
                {
                    OFFSET -0.000000 -0.055620 0.128355
                    CHANNELS 3 Zrotation Xrotation Yrotation
                    End Site
                    {
                        OFFSET -0.000000 0.000000 0.034228
                    }
                }
            }
        }
    }
}
MOTION
Frames:    8
Frame Time:    0.010000
0.182413    0.826240    0.006388    -0.599955    -7.792922    -10.676945    -1.043183    0.983188    1.281679    1.785997    -6.987741    0.533013    -1.255221    18.996922    -1.921417    -0.158264    -1.191791    -2.342941    15.695307    2.057600    -10.970776    -16.431843    -7.415585    13.232623    -5.997470    13.209072    6.632236    5.638711    13.041033    -10.536980    -20.179592    3.997265    -4.459583    21.019548    -9.388264    6.457253    -2.270953    -0.101242    -3.196762    -5.038175    -0.354697    4.317563    4.469008    11.145656    -0.718141    2.022411    0.856151    5.440217    1.131782    5.138178    12.287423    0.000000    0.000000    0.000000    -7.602206    7.999108    -0.563338    0.806968    5.227343    5.569632    1.145100    3.301391    -12.853571    0.000000    0.000000    0.000000    
0.182568    0.826271    0.006555    -0.628792    -7.807365    -10.708123    -1.046027    0.998828    1.311841    1.814422    -7.004763    0.544957    -1.159582    19.041380    -1.885316    -0.213000    -1.232381    -2.271025    15.716354    2.075958    -10.981935    -16.429350    -7.514553    13.191659    -5.975352    13.290246    6.648108    5.722263    13.107418    -10.677241    -20.158501    3.991597    -4.448277    20.999849    -9.538388    6.368932    -2.368427    -0.161893    -3.152104    -5.125494    -0.418066    4.267397    4.459555    11.162910    -0.738207    2.051508    0.892282    5.485016    1.127977    5.096329    12.278744    0.000000    0.000000    0.000000    -7.600092    8.010331    -0.709917    0.802700    5.249871    5.643798    1.212149    3.280058    -12.815100    0.000000    0.000000    0.000000    
0.182686    0.826277    0.006729    -0.665232    -7.805084    -10.734872    -1.033808    0.986308    1.346656    1.832631    -7.005888    0.557848    -1.085297    19.099989    -1.850428    -0.231953    -1.301465    -2.211145    15.722446    2.072183    -11.006715    -16.537109    -7.166259    13.228905    -5.862012    13.110772    6.447864    5.723664    12.910795    -10.685715    -20.140697    3.990135    -4.437569    20.951082    -9.602846    6.284055    -2.411006    -0.175960    -3.160523    -5.105082    -0.434796    4.308139    4.467940    11.170838    -0.766144    2.072315    0.914693    5.529356    1.165183    5.107811    12.276179    0.000000    0.000000    0.000000    -7.577630    7.992665    -0.949525    0.782483    5.297125    5.708950    1.230822    3.306461    -12.651302    0.000000    0.000000    0.000000    
0.182804    0.826311    0.006867    -0.701089    -7.794919    -10.761726    -1.020775    0.960128    1.382174    1.851700    -6.995995    0.570840    -1.035902    19.135387    -1.827216    -0.221012    -1.339971    -2.173975    15.740197    2.099885    -10.997926    -16.575502    -7.067460    13.166031    -5.828841    13.029106    6.409980    5.729934    12.820409    -10.774549    -20.155729    3.965376    -4.410977    20.895849    -9.518085    6.197689    -2.405587    -0.118661    -3.236415    -5.055345    -0.379068    4.356711    4.481564    11.171431    -0.765543    2.087748    0.939027    5.514732    1.212579    5.068930    12.291455    0.000000    0.000000    0.000000    -7.562382    7.986701    -1.110021    0.786575    5.307255    5.847967    1.229220    3.346839    -12.648558    0.000000    0.000000    0.000000    
0.182916    0.826300    0.007035    -0.734847    -7.784525    -10.780870    -1.000362    0.935153    1.412736    1.847238    -6.986947    0.580626    -1.019565    19.068262    -1.785391    -0.156609    -1.219926    -2.132612    15.772696    2.087059    -11.000093    -16.551344    -7.111553    13.124203    -5.865499    13.056265    6.440257    5.792403    12.840717    -10.868029    -20.157461    3.975783    -4.394881    20.824068    -9.480960    6.168112    -2.343439    0.052058    -3.381898    -5.051190    -0.214774    4.427329    4.492721    11.178542    -0.764881    2.110446    0.949465    5.515088    1.246448    5.027316    12.277486    0.000000    0.000000    0.000000    -7.542180    7.982489    -1.255383    0.769087    5.327598    6.040499    1.285661    3.349871    -12.681975    0.000000    0.000000    0.000000    
0.183005    0.826312    0.007235    -0.764183    -7.774035    -10.799496    -0.985008    0.896165    1.450731    1.844427    -6.973096    0.593152    -0.998012    19.101753    -1.772165    -0.102506    -1.253239    -2.119188    15.772933    2.112086    -11.017630    -16.488491    -7.138023    13.092427    -5.879155    13.024070    6.432887    5.825293    12.805888    -10.866364    -20.168295    3.998085    -4.398384    20.763153    -9.313860    6.171981    -2.302001    0.178542    -3.560227    -5.015650    -0.091374    4.541641    4.503543    11.189560    -0.740593    2.124221    0.952039    5.490067    1.234576    5.004745    12.308312    0.000000    0.000000    0.000000    -7.527938    7.992620    -1.391541    0.774996    5.304466    5.989503    1.256323    3.406134    -12.500777    0.000000    0.000000    0.000000    
0.183064    0.826334    0.007394    -0.784976    -7.771442    -10.812104    -0.980091    0.883822    1.487321    1.824023    -6.989755    0.604399    -0.900769    19.139650    -1.784358    -0.147136    -1.286118    -2.097663    15.807590    2.104129    -11.047188    -16.468685    -7.127539    13.091921    -5.866903    13.055182    6.409687    5.787119    12.841840    -10.803993    -20.171284    3.996504    -4.378065    20.688593    -9.234838    6.122803    -2.199009    0.358988    -3.695604    -4.971373    0.088754    4.587956    4.527022    11.188662    -0.599895    2.110246    0.984223    5.301993    1.305203    4.954239    12.313974    0.000000    0.000000    0.000000    -7.515986    8.020311    -1.475400    0.768043    5.267840    6.006868    1.281297    3.437033    -12.430901    0.000000    0.000000    0.000000    
0.183145    0.826314    0.007572    -0.788481    -7.760765    -10.819583    -0.986489    0.747205    1.514780    1.818345    -6.790813    0.610412    -0.861157    18.966221    -1.771503    -0.150723    -1.171587    -2.070549    15.847822    1.995360    -11.068010    -16.442753    -7.125909    13.115077    -5.822905    12.994980    6.399369    5.708985    12.787045    -10.780276    -20.207077    3.952963    -4.372842    20.622807    -9.215916    6.105400    -2.085556    0.474301    -3.849246    -5.021747    0.202228    4.604609    4.511819    11.197251    -0.573725    2.125590    0.966820    5.268584    1.198550    4.945812    12.414253    0.000000    0.000000    0.000000    -7.519217    8.035281    -1.538903    0.761706    5.234541    5.950738    1.292625    3.459043    -12.319508    0.000000    0.000000    0.000000    
